<svg viewBox="0 0 40 40" class="sygnet "><path fill="currentColor" d="M37.425 10.194C34.0035 4.12698 27.478 0 20 0C8.95943 0 0 8.95943 0 20C0 20.7055 0.0352733 21.3757 0.10582 22.0459C1.12875 32.134 9.62963 40 20 40C24.8325 40 29.2769 38.2716 32.7337 35.4497C37.1781 31.7813 40 26.2081 40 20C40 16.4374 39.0476 13.0864 37.425 10.194ZM20.5996 36.4374C19.4004 35.2381 13.5097 29.3122 13.0864 28.8889C12.9101 28.7125 13.0511 28.6067 13.1217 28.4303C13.1922 28.2892 15.5556 23.8095 15.6614 23.5979C15.7672 23.3862 16.0141 23.351 16.0494 23.351C16.1905 23.351 19.0829 23.351 19.1534 23.351C19.2593 23.351 19.4004 23.3862 19.2945 23.5979C19.1887 23.8095 17.037 28.0776 17.0018 28.1834C16.9312 28.2892 16.9665 28.4656 17.0723 28.5362C17.1429 28.642 23.2451 34.7443 24.4444 35.9083C23.351 36.1905 21.7284 36.4021 20.5996 36.4374ZM3.49206 20C3.49206 16.8254 4.44444 13.8977 5.99647 11.358C8.0776 11.4638 21.2346 12.0282 21.3757 12.0282C21.5168 12.0282 21.7637 12.0988 21.8695 12.381C21.9753 12.6631 23.3862 15.9436 23.4568 16.1199C23.5273 16.2963 23.5273 16.649 22.9277 16.649C22.2575 16.649 8.71252 16.649 7.68959 16.649C6.66667 16.649 5.85538 17.4603 5.85538 18.4832C5.85538 18.4832 5.85538 23.739 5.85538 24.0564C5.85538 24.515 5.99647 24.903 6.24339 25.1852C6.66667 25.679 7.23104 25.8554 7.33686 25.8907C7.51323 25.9612 7.5485 25.8201 7.5485 25.7143C7.5485 25.6085 7.5485 18.836 7.5485 18.6949C7.5485 18.5185 7.65432 18.4127 7.79541 18.4127C7.93651 18.4127 9.87654 18.4127 9.94709 18.4127C9.98236 18.4127 10.1587 18.4127 10.0529 18.6243C9.52381 19.4004 9.24162 20.1058 9.24162 21.4109C9.24162 23.4215 10.7231 24.7972 11.2169 25.1499C11.2875 25.1852 11.358 25.3263 11.2522 25.5026C11.1464 25.679 9.87654 28.254 9.80599 28.3598C9.73545 28.5009 9.6649 28.6772 9.84127 28.8536L17.284 36.2963C9.20635 34.9206 3.49206 28.1129 3.49206 20ZM20 3.49206C24.9735 3.49206 29.418 5.74956 32.4515 9.24162H26.7372L27.1252 8.46561C27.7249 7.19577 25.4674 6.06702 24.7972 7.47795L23.9153 9.24162H7.58377C10.6173 5.74956 15.0265 3.49206 20 3.49206ZM20.3175 28.6772C20.1764 28.5362 20.2469 28.3598 20.2469 28.2892L22.6102 23.5626C22.7161 23.3862 22.8924 23.3157 23.0335 23.3157C23.0335 23.3157 26.3492 23.3157 26.455 23.3157C26.5608 23.3157 26.6314 23.4215 26.5608 23.5626L25.4674 26.0317C25.4321 26.1023 25.3968 26.2787 25.5379 26.3845L26.8078 27.2663C26.9841 27.4074 27.1252 27.2663 27.1958 27.1605C27.231 27.0547 28.7831 23.5626 28.7831 23.5626C28.8889 23.3862 29.03 23.3157 29.2064 23.3157H31.4991C31.5344 23.3157 31.7108 23.351 31.6402 23.5626C31.5344 23.739 30.4409 26.3492 30.4409 26.3492C30.4056 26.4198 30.3704 26.5961 30.5467 26.7019L31.8166 27.5485C31.9929 27.6896 32.134 27.5485 32.2046 27.4427C32.2751 27.3369 33.8977 23.6332 34.0388 23.3157C34.4621 22.2928 34.2857 20.5996 32.2751 20.5996C32.2751 20.5996 29.9824 20.5996 29.7355 20.5996C29.4885 20.5996 29.418 20.4233 29.418 20.3175C29.418 20.2469 29.418 12.522 29.418 12.522C29.418 12.2046 29.5944 12.0282 29.806 12.0282C29.8765 12.0282 33.0864 11.5344 34.0741 11.3933C35.6261 13.8977 36.5432 16.8254 36.5432 20C36.5432 26.7372 32.522 32.4868 26.7372 35.097L20.3175 28.6772Z"></path></svg>