<svg width="100%" viewBox="0 0 220 32" class=""><path d="M129.732 2.47484C129.69 2.24018 129.54 2.19751 129.369 2.19751H127.957C127.85 2.19751 127.722 2.24018 127.636 2.41084C127.551 2.58151 119.23 21.9948 119.08 22.3362C118.93 22.6562 118.781 22.6135 118.631 22.2722C118.545 22.0802 109.561 2.62418 109.476 2.45351C109.39 2.26151 109.262 2.21884 109.091 2.21884H107.593C107.593 2.21884 107.315 2.24018 107.294 2.45351C107.251 2.64551 103.144 29.0775 103.123 29.1842C103.101 29.2908 103.08 29.5895 103.422 29.5895H105.283C105.561 29.5895 105.754 29.4615 105.797 29.2268C105.839 28.9068 108.599 11.3068 108.62 11.1575C108.663 10.8375 108.748 10.8375 108.898 11.1148C108.984 11.2642 117.262 29.2695 117.326 29.3975C117.39 29.5255 117.497 29.5895 117.583 29.5895H118.502C118.502 29.5895 118.674 29.5255 118.738 29.3762C118.802 29.2268 126.396 11.5202 126.524 11.2215C126.652 10.9228 126.738 10.9228 126.802 11.2642C126.845 11.4348 129.968 29.0988 130.011 29.3122C130.053 29.5468 130.182 29.5895 130.417 29.5895H134.032C134.289 29.5895 134.481 29.3762 134.438 29.1415C134.331 28.5228 129.775 2.70951 129.732 2.51751V2.47484Z" fill="currentColor"></path><path d="M151.679 18.1122C151.765 18.3042 151.743 18.4962 151.358 18.4962H143.636C143.337 18.4962 143.23 18.3468 143.358 18.0695C143.465 17.8348 147.123 9.36551 147.251 9.06684C147.38 8.78951 147.594 8.83218 147.679 9.06684C147.829 9.40818 151.594 17.9202 151.679 18.0908V18.1122ZM149.733 3.00818C149.412 2.30418 149.048 2.19751 148.77 2.19751H147.658C147.551 2.19751 147.401 2.26151 147.294 2.47484C147.187 2.70951 135.979 28.6295 135.807 29.0135C135.679 29.3122 135.679 29.5255 136.064 29.5255H138.096C138.289 29.5255 138.438 29.4615 138.567 29.1628C138.738 28.8002 141.775 21.7602 141.882 21.4828C142.032 21.1202 142.332 21.1628 142.545 21.1628H152.599C152.791 21.1628 153.027 21.1202 153.176 21.4828C153.176 21.4828 156.471 28.9282 156.556 29.1628C156.663 29.3975 156.877 29.5468 157.07 29.5468H160.877C161.198 29.5468 161.348 29.2695 161.241 29.0348C161.155 28.8642 150.011 3.62684 149.733 3.00818Z" fill="currentColor"></path><path d="M86.7806 7.80812C86.7806 5.82412 88.2137 4.28812 90.1175 3.86146C91.9784 3.45612 94.3314 3.86146 95.5506 5.44012C95.7217 5.65346 95.8715 5.90946 96.0212 6.16546C96.1281 6.33612 96.2993 6.50679 96.6629 6.52812C96.7485 6.52812 97.1121 6.52812 97.3046 6.52812C97.4971 6.52812 97.7752 6.40012 97.7538 6.12279C97.711 5.58946 97.6255 3.69079 97.6041 3.39212C97.6041 3.00812 97.433 2.96546 97.1977 2.85879C96.2351 2.43212 95.2084 2.11212 94.1602 1.94146C91.7217 1.49346 89.1121 1.64279 86.8019 2.60279C84.6629 3.49879 83.0586 5.24812 82.4383 7.46679C81.9463 9.19479 82.0961 11.1361 83.0372 12.6935C83.9142 14.1441 85.2404 15.0401 86.7378 15.7015C88.2779 16.3628 89.8608 16.9388 91.4009 17.5788C93.3046 18.3895 94.8019 19.3281 95.2939 20.9281C95.8715 22.8908 95.5292 24.9815 93.9249 26.4321C91.7645 28.3735 85.9677 28.0748 84.0212 25.1948C83.6789 24.6828 83.6148 24.3628 83.0372 24.3628C82.695 24.3628 82.203 24.3628 82.203 24.8535V27.8188C82.203 28.1388 82.2244 28.4161 82.5666 28.5655C83.1656 28.8215 83.8715 29.0561 84.5132 29.2695C85.5613 29.6108 86.6094 29.7815 87.7003 29.8881C94.7592 30.6135 99.8501 27.0721 99.8501 20.9495C99.8501 18.7735 99.0586 16.6188 97.2191 15.2961C95.6576 14.1655 93.6896 13.4828 91.8928 12.8855C90.8447 12.5441 89.6041 12.1175 88.6629 11.5201C87.3367 10.6668 86.7592 9.38679 86.7592 7.80812" fill="currentColor"></path><path d="M219.016 2.64551C219.016 2.38951 218.802 2.19751 218.567 2.19751H216.685C216.428 2.19751 216.235 2.41084 216.235 2.64551V21.0562C216.235 21.5468 216.086 21.6748 215.765 21.3548C214.759 20.3095 198.546 3.26418 197.733 2.45351C197.519 2.21884 197.326 2.19751 197.112 2.19751H195.722C195.465 2.19751 195.273 2.41084 195.273 2.64551V29.0775C195.273 29.3335 195.487 29.5255 195.722 29.5255H197.604C197.861 29.5255 198.054 29.3122 198.054 29.0775V10.3468C198.054 9.60018 198.46 10.0055 198.674 10.2188C199.872 11.4775 214.952 27.3068 216.792 29.2268C217.07 29.5042 217.284 29.5255 217.39 29.5255H218.588C218.845 29.5255 219.038 29.3122 219.038 29.0775V2.64551H219.016Z" fill="currentColor"></path><path d="M26.4599 28.8215C26.0107 28.2455 18.0749 18.1122 17.6471 17.5575C17.4546 17.3015 17.5187 17.1095 18.0321 16.9175C19.1658 16.4908 23.1872 14.6775 23.4225 9.89884C23.615 5.86684 20.8128 2.19751 16.4064 2.19751H5.5615C5.28343 2.19751 5.1123 2.41084 5.1123 2.64551V29.0775C5.1123 29.3335 5.32621 29.5255 5.5615 29.5255H8.91979C9.17648 29.5255 9.39038 29.3762 9.39038 29.0775V17.9842C9.39038 17.7495 9.58289 17.5362 9.83958 17.5362H11.8075C11.9572 17.5362 12.2353 17.5362 12.5134 17.8988C12.7701 18.2615 21.3904 29.2482 21.3904 29.2482C21.6043 29.4615 21.7754 29.5255 21.9679 29.5255H26.0749C26.4385 29.5255 26.6738 29.0775 26.4385 28.8002L26.4599 28.8215ZM11.6364 14.9762H9.81819C9.5615 14.9762 9.39038 14.7415 9.39038 14.5068V5.03484C9.39038 4.80018 9.58289 4.58684 9.83958 4.58684H12.7487C15.7861 4.58684 18.6524 5.46151 18.6524 9.38684C18.6524 11.3708 17.6257 14.9762 11.6364 14.9762Z" fill="currentColor"></path><path d="M65.7754 7.80812C65.7754 5.82412 67.2086 4.28812 69.1123 3.86146C70.9733 3.45612 73.3262 3.86146 74.5455 5.44012C74.7166 5.65346 74.8663 5.90946 75.016 6.16546C75.123 6.33612 75.2941 6.50679 75.6577 6.52812C75.7433 6.52812 76.107 6.52812 76.2995 6.52812C76.492 6.52812 76.7701 6.40012 76.7487 6.12279C76.7273 5.58946 76.6203 3.69079 76.6203 3.39212C76.6203 3.00812 76.4492 2.96546 76.2139 2.85879C75.2513 2.43212 74.2246 2.11212 73.1765 1.94146C70.738 1.49346 68.1283 1.64279 65.8182 2.60279C63.6791 3.49879 62.0962 5.24812 61.4545 7.46679C60.9626 9.19479 61.1123 11.1361 62.0535 12.6935C62.9305 14.1441 64.2567 15.0401 65.754 15.7015C67.2941 16.3628 68.877 16.9388 70.4171 17.5788C72.3209 18.3895 73.8182 19.3281 74.2888 20.9281C74.8663 22.8908 74.5241 24.9815 72.9198 26.4321C70.7594 28.3735 64.9626 28.0748 63.016 25.1948C62.6524 24.6828 62.5882 24.3628 62.0321 24.3628C61.6898 24.3628 61.1979 24.3628 61.1979 24.8535V27.8188C61.1979 28.1388 61.2192 28.4161 61.5615 28.5655C62.1604 28.8215 62.8663 29.0561 63.508 29.2695C64.5561 29.6108 65.6043 29.7815 66.6952 29.8881C73.7326 30.6135 78.8449 27.0721 78.8449 20.9495C78.8449 18.7735 78.0321 16.6188 76.2139 15.2961C74.6524 14.1655 72.6845 13.4828 70.8877 12.8855C69.8396 12.5441 68.5989 12.1175 67.6578 11.5201C66.3315 10.6668 65.754 9.38679 65.7326 7.80812" fill="currentColor"></path><path d="M188.385 2.64551C188.385 2.38951 188.171 2.19751 187.936 2.19751H186.053C185.797 2.19751 185.604 2.41084 185.604 2.64551V21.0562C185.604 21.5468 185.454 21.6748 185.134 21.3548C184.128 20.3095 167.893 3.26418 167.102 2.45351C166.888 2.21884 166.652 2.19751 166.545 2.19751H165.069C164.813 2.19751 164.62 2.41084 164.62 2.64551V29.0775C164.62 29.3335 164.834 29.5255 165.069 29.5255H166.952C167.208 29.5255 167.401 29.3122 167.401 29.0775V10.3468C167.401 9.60018 167.807 10.0055 168 10.2188C169.198 11.4775 184.299 27.3068 186.118 29.2268C186.396 29.5042 186.61 29.5255 186.717 29.5255H187.914C188.171 29.5255 188.364 29.3122 188.364 29.0775V2.64551H188.385Z" fill="currentColor"></path><path d="M55.187 8.68265C52.6202 4.13865 47.7432 1.06665 42.1389 1.06665C33.8608 1.06665 27.1656 7.74398 27.1656 16C27.1656 16.512 27.187 17.024 27.2512 17.536C28.0213 25.0666 34.3956 30.9333 42.1389 30.9333C45.7539 30.9333 49.0694 29.6533 51.6576 27.52C54.9945 24.7893 57.1122 20.6293 57.1122 16C57.1122 13.3333 56.4063 10.8586 55.187 8.68265ZM42.7806 28.288C41.8822 27.392 37.5186 23.0613 37.1977 22.72C37.0694 22.592 37.1763 22.5066 37.2191 22.3786C37.2619 22.272 39.0801 18.8373 39.1657 18.688C39.2512 18.5173 39.4223 18.496 39.4437 18.496H41.1977C41.1977 18.496 41.3902 18.496 41.3047 18.688C41.2191 18.8587 39.5935 22.08 39.5507 22.144C39.5079 22.2293 39.5507 22.336 39.5935 22.4C39.6576 22.464 44.2779 27.008 45.1763 27.904C44.3849 28.096 43.5721 28.224 42.7378 28.2666L42.7806 28.288ZM29.7753 16C29.7753 13.632 30.4812 11.4346 31.6362 9.55732C33.1763 9.62132 43.0587 10.0693 43.1656 10.0693C43.2726 10.0693 43.4437 10.112 43.5293 10.3253C43.6148 10.5387 44.663 12.992 44.7271 13.12C44.7913 13.248 44.7699 13.504 44.3421 13.504H32.9411C32.171 13.504 31.5507 14.1013 31.5507 14.8693V19.0293C31.5507 19.3706 31.6576 19.648 31.8288 19.8826C32.1282 20.2453 32.663 20.4373 32.7485 20.4586C32.8983 20.5226 32.9197 20.416 32.9197 20.3307V15.04C32.9197 14.912 33.0052 14.848 33.0908 14.848H34.5881C34.5881 14.848 34.7592 14.848 34.6523 14.9973C34.2673 15.552 34.0747 16.1066 34.0747 17.0666C34.0747 18.56 35.187 19.6053 35.5507 19.8613C35.5935 19.8826 35.6576 19.9893 35.5935 20.1387C35.5293 20.288 34.5025 22.2933 34.4598 22.3786C34.3956 22.4853 34.3528 22.6133 34.5025 22.7626L39.9357 28.16C34.1603 27.1147 29.7539 22.1013 29.7539 16.0427L29.7753 16ZM42.1389 3.66932C45.8822 3.66932 49.1763 5.35465 51.4437 7.95732H47.1443L47.5293 7.14665C47.9785 6.18665 46.2886 5.35465 45.7967 6.39998L45.0052 7.93598H32.7913C35.0587 5.33332 38.3742 3.64798 42.0961 3.64798L42.1389 3.66932ZM42.3956 22.4853C42.3956 22.4853 42.3314 22.2506 42.3528 22.208L44.1282 18.688C44.2138 18.5387 44.3207 18.5173 44.4491 18.5173H46.9945C46.9945 18.5173 47.1443 18.6026 47.0801 18.7093L46.2459 20.5866C46.2459 20.5866 46.2031 20.7573 46.31 20.8426L47.4437 21.5893C47.5935 21.6747 47.7004 21.5893 47.7218 21.504C47.7646 21.44 48.941 18.7093 48.941 18.7093C49.0266 18.5813 49.1122 18.5387 49.2619 18.5387H50.5239C50.5239 18.5387 50.6737 18.5813 50.6309 18.7093C50.5667 18.8587 49.7539 20.672 49.7539 20.672C49.7539 20.7147 49.7111 20.8426 49.8181 20.928L50.9731 21.6746C51.1229 21.7813 51.2084 21.6747 51.2512 21.5893C51.294 21.504 52.5132 18.7306 52.6202 18.496C52.9411 17.7493 52.8127 16.4693 51.294 16.4693H49.4116C49.2191 16.4693 49.1763 16.32 49.1763 16.256V10.4533C49.1763 10.2186 49.3047 10.0907 49.4758 10.0693C49.54 10.0693 51.9357 9.70665 52.663 9.59998C53.8181 11.4773 54.5239 13.6747 54.5239 16.0213C54.5239 21.056 51.5079 25.3653 47.187 27.2853L42.417 22.5066L42.3956 22.4853Z" fill="currentColor"></path></svg>